HIERARCHY
ROOT Hips
{
	OFFSET 0.00000 0.00000 0.00000
	CHANNELS 6 Xposition Yposition Zposition Zrotation Yrotation Xrotation 
	JOINT LHipJoint
	{
		OFFSET 0 0 0
		CHANNELS 3 Zrotation Yrotation Xrotation
		JOINT LeftHip
		{
			OFFSET 1.34019 -1.87553 0.90315
			CHANNELS 3 Zrotation Yrotation Xrotation
			JOINT LeftKnee
			{
				OFFSET 2.55316 -7.01474 0.00000
				CHANNELS 3 Zrotation Yrotation Xrotation
				JOINT LeftAnkle
				{
					OFFSET 2.64657 -7.27139 0.00000
					CHANNELS 3 Zrotation Yrotation Xrotation
					JOINT LeftToe
					{
						OFFSET 0.24207 -0.66507 2.14489
						CHANNELS 3 Zrotation Yrotation Xrotation
						End Site
						{
							OFFSET 0.00000 -0.00000 1.12451
						}
					}
				}
			}
		}
	}
	JOINT RHipJoint
	{
		OFFSET 0 0 0
		CHANNELS 3 Zrotation Yrotation Xrotation
		JOINT RightHip
		{
			OFFSET -1.28320 -1.87553 0.90315
			CHANNELS 3 Zrotation Yrotation Xrotation
			JOINT RightKnee
			{
				OFFSET -2.60484 -7.15674 0.00000
				CHANNELS 3 Zrotation Yrotation Xrotation
				JOINT RightAnkle
				{
					OFFSET -2.60296 -7.15159 0.00000
					CHANNELS 3 Zrotation Yrotation Xrotation
					JOINT RightToe
					{
						OFFSET -0.31082 -0.85398 2.28998
						CHANNELS 3 Zrotation Yrotation Xrotation
						End Site
						{
							OFFSET -0.00000 -0.00000 1.21611
						}
					}
				}
			}
		}
	}
	JOINT lowerback
	{
		OFFSET 0 0 0
		CHANNELS 3 Zrotation Yrotation Xrotation
		JOINT Chest
		{
			OFFSET -0.00160 2.05581 -0.15156
			CHANNELS 3 Zrotation Yrotation Xrotation
			JOINT Chest2
			{
				OFFSET 0.04594 2.06326 -0.01617
				CHANNELS 3 Zrotation Yrotation Xrotation
				JOINT lowerneck
				{
					OFFSET 0 0 0
					CHANNELS 3 Zrotation Yrotation Xrotation
					JOINT Neck
					{
						OFFSET 0.03753 1.73883 0.26751
						CHANNELS 3 Zrotation Yrotation Xrotation
						JOINT Head
						{
							OFFSET -0.09795 1.76129 -0.31794
							CHANNELS 3 Zrotation Yrotation Xrotation
							End Site
							{
								OFFSET -0.03611 1.79987 -0.13846
							}
						}
					}
				}
				JOINT LeftCollar
				{
					OFFSET 0 0 0
					CHANNELS 3 Zrotation Yrotation Xrotation
					JOINT LeftShoulder
					{
						OFFSET 3.30667 1.29205 -0.22445
CHANNELS 3 Zrotation Xrotation Yrotation
						JOINT LeftElbow
						{
OFFSET 0 -4.927850 -0.000000
CHANNELS 3 Zrotation Xrotation Yrotation
							JOINT LeftWrist
							{
OFFSET 0 -3.440520 0.000000
CHANNELS 3 Zrotation Xrotation Yrotation
								JOINT lhand
								{
									OFFSET 0 0 0
CHANNELS 3 Zrotation Xrotation Yrotation
									JOINT LFingers
									{
OFFSET 0 -0.654330 0.000000
CHANNELS 3 Zrotation Xrotation Yrotation
										End Site
										{
OFFSET 0 -0.527530 0.000000
										}
									}
								}
								JOINT LThumb
								{
OFFSET 0 0.000000 0.000000
CHANNELS 3 Zrotation Xrotation Yrotation
									End Site
									{
OFFSET 0 -0.535590 0.535590
									}
								}
							}
						}
					}
				}
				JOINT RightCollar
				{
					OFFSET 0 0 0
					CHANNELS 3 Zrotation Yrotation Xrotation
					JOINT RightShoulder
					{
						OFFSET -3.20032 1.49783 -0.27688
CHANNELS 3 Zrotation Xrotation Yrotation
						JOINT RightElbow
						{
OFFSET 0 -5.091810 -0.000000
CHANNELS 3 Zrotation Xrotation Yrotation
							JOINT RightWrist
							{
OFFSET 0 -3.498650 -0.000000
CHANNELS 3 Zrotation Xrotation Yrotation
								JOINT rhand
								{
									OFFSET 0 0 0
CHANNELS 3 Zrotation Xrotation Yrotation
									JOINT RFingers
									{
OFFSET 0 -0.666410 0.000000
CHANNELS 3 Zrotation Xrotation Yrotation
										End Site
										{
OFFSET 0 -0.537280 0.000000
										}
									}
								}
								JOINT RThumb
								{
OFFSET 0 0.000000 0.000000
CHANNELS 3 Zrotation Xrotation Yrotation
									End Site
									{
OFFSET 0 -0.545480 0.545480
									}
								}
							}
						}
					}
				}
			}
		}
	}
}
MOTION
Frames: 6
Frame Time: 0.008333333333333333
-0.592646 17.453047 -25.096488 -4.189360 4.514876 11.075266 0.000000 0.000000 0.000000 -6.070345 -11.456519 -45.965298 3.759038 11.832576 35.142274 0.154649 6.656488 -12.637182 0.759031 -5.564121 -15.524774 0.000000 0.000000 0.000000 27.543506 -4.865408 3.884194 -0.344633 -3.771330 10.434253 -0.379694 -14.895272 -24.748378 -0.143355 2.439025 -6.720581 5.353722 2.222812 8.007923 3.410368 3.660476 -0.688157 0.108222 1.707051 -5.108053 3.239142 -1.184439 -22.381205 -6.532713 -1.244887 16.868985 -2.954969 -1.114669 8.895937 0.000000 0.000000 0.000000 1.206727 8.097699 -24.335737 16.197525 -25.787714 3.731510 11.455886 -9.443118 -0.268155 0.000000 0.000000 0.000000 -7.125000 0.000000 0.000000 -11.878839 30.137383 -4.393929 0.000000 0.000000 0.000000 -5.352783 -1.750463 20.143325 -11.635383 -19.255587 -1.980457 -14.382081 -0.521726 3.212708 0.000000 0.000000 0.000000 7.125000 0.000000 0.000000 9.934256 33.177347 2.915960
-0.585986 17.443372 -25.038124 -4.187348 4.464754 11.152165 0.000000 0.000000 0.000000 -6.049888 -11.427376 -46.196702 3.783855 11.866948 35.262987 0.155277 6.595692 -12.582208 0.758824 -5.563343 -15.522558 0.000000 0.000000 0.000000 27.543278 -4.830854 4.150504 -0.330058 -3.691839 10.211266 -0.345182 -15.059590 -24.647341 -0.151272 2.505314 -6.904322 5.350347 2.276044 8.023346 3.396256 3.730496 -0.674072 0.086871 1.741764 -5.098809 3.226028 -1.208639 -22.395128 -6.521732 -1.278724 16.814523 -2.952471 -1.130107 8.877830 0.000000 0.000000 0.000000 1.221431 8.124692 -24.259313 16.140908 -25.711317 3.706905 11.455714 -9.367795 -0.252583 0.000000 0.000000 0.000000 -7.125000 0.000000 0.000000 -11.877048 30.121833 -4.397745 0.000000 0.000000 0.000000 -5.354116 -1.924946 20.358463 -11.687850 -19.334861 -1.997783 -14.383840 -0.614853 3.186843 0.000000 0.000000 0.000000 7.125000 0.000000 0.000000 9.929539 33.151124 2.920918
-0.579077 17.433254 -24.978706 -4.182979 4.415989 11.224242 0.000000 0.000000 0.000000 -6.039547 -11.391360 -46.422203 3.819426 11.915979 35.435579 0.157595 6.517687 -12.538347 0.760473 -5.569271 -15.539630 0.000000 0.000000 0.000000 27.542164 -4.793724 4.422274 -0.316731 -3.616865 10.001276 -0.310503 -15.236684 -24.561268 -0.160187 2.577257 -7.103971 5.342012 2.327973 8.037744 3.382393 3.798159 -0.659986 0.068819 1.775507 -5.089314 3.213414 -1.229099 -22.420580 -6.509920 -1.307073 16.781538 -2.949752 -1.143078 8.869450 0.000000 0.000000 0.000000 1.236051 8.153487 -24.178456 16.081713 -25.631261 3.681274 11.458923 -9.286626 -0.237205 0.000000 0.000000 0.000000 -7.125000 0.000000 0.000000 -11.872679 30.106589 -4.400509 0.000000 0.000000 0.000000 -5.357861 -2.095576 20.578838 -11.745083 -19.421201 -2.016772 -14.385266 -0.718622 3.147038 0.000000 0.000000 0.000000 7.125000 0.000000 0.000000 9.923299 33.110739 2.928897
-0.572060 17.423064 -24.918964 -4.176778 4.368199 11.295038 0.000000 0.000000 0.000000 -6.033341 -11.354677 -46.645253 3.857232 11.967908 35.618598 0.160399 6.434748 -12.498014 0.761996 -5.574743 -15.555386 0.000000 0.000000 0.000000 27.538201 -4.764521 4.693142 -0.303631 -3.542745 9.793709 -0.276395 -15.409619 -24.475399 -0.169439 2.651141 -7.309028 5.332426 2.379337 8.050254 3.368038 3.864699 -0.644621 0.051199 1.808787 -5.077488 3.201244 -1.248789 -22.446494 -6.498083 -1.334569 16.747465 -2.946967 -1.155622 8.860824 0.000000 0.000000 0.000000 1.250443 8.180119 -24.095470 16.021569 -25.549872 3.655260 11.462349 -9.204254 -0.223371 0.000000 0.000000 0.000000 -7.125000 0.000000 0.000000 -11.868329 30.092877 -4.402828 0.000000 0.000000 0.000000 -5.362158 -2.266026 20.801581 -11.804210 -19.510354 -2.036427 -14.386626 -0.824958 3.108333 0.000000 0.000000 0.000000 7.125000 0.000000 0.000000 9.917263 33.071461 2.936659
-0.564349 17.412410 -24.857140 -4.158815 4.326655 11.357620 0.000000 0.000000 0.000000 -6.053666 -11.313713 -46.852568 3.909384 12.038424 35.868526 0.166328 6.320148 -12.480318 0.762709 -5.577283 -15.562696 0.000000 0.000000 0.000000 27.515958 -4.786184 4.958225 -0.291997 -3.474100 9.601683 -0.245951 -15.555867 -24.390842 -0.180850 2.737482 -7.548793 5.314819 2.427076 8.050655 3.350520 3.924028 -0.621041 0.036355 1.839097 -5.050699 3.191928 -1.263543 -22.475379 -6.486093 -1.356589 16.706412 -2.943758 -1.165429 8.850616 0.000000 0.000000 0.000000 1.263369 8.192867 -23.998833 15.955332 -25.459921 3.626777 11.467163 -9.114169 -0.219449 0.000000 0.000000 0.000000 -7.125000 0.000000 0.000000 -11.864094 30.088999 -4.402293 0.000000 0.000000 0.000000 -5.370003 -2.435319 21.039519 -11.875484 -19.617555 -2.060364 -14.387562 -0.947760 3.076685 0.000000 0.000000 0.000000 7.125000 0.000000 0.000000 9.912538 33.039278 2.943034
-0.556638 17.401757 -24.795315 -4.140851 4.285112 11.420203 0.000000 0.000000 0.000000 -6.073992 -11.272749 -47.059883 3.961536 12.108941 36.118454 0.172256 6.205547 -12.462622 0.763423 -5.579824 -15.570006 0.000000 0.000000 0.000000 27.493716 -4.807847 5.223308 -0.280364 -3.405456 9.409657 -0.215507 -15.702115 -24.306284 -0.192261 2.823822 -7.788558 5.297212 2.474815 8.051056 3.333003 3.983356 -0.597461 0.021512 1.869408 -5.023910 3.182612 -1.278297 -22.504263 -6.474102 -1.378608 16.665359 -2.940549 -1.175235 8.840409 0.000000 0.000000 0.000000 1.276296 8.205615 -23.902196 15.889094 -25.369970 3.598294 11.471977 -9.024084 -0.215526 0.000000 0.000000 0.000000 -7.125000 0.000000 0.000000 -11.859860 30.085121 -4.401758 0.000000 0.000000 0.000000 -5.377848 -2.604612 21.277457 -11.946759 -19.724756 -2.084300 -14.388498 -1.070562 3.045037 0.000000 0.000000 0.000000 7.125000 0.000000 0.000000 9.907813 33.007095 2.949408
